<svg width="128" height="128" viewBox="0 0 128 128" fill="none" xmlns="http://www.w3.org/2000/svg">
  <rect width="128" height="128" rx="64" fill="#AB9FF2"/>
  <path d="M110.584 64.9142C110.584 59.2032 106.179 54.4985 100.282 54.4985H74.0089C73.6484 54.4985 73.3556 54.197 73.3556 53.8268V38.4673C73.3556 32.4501 68.4504 27.58 62.3911 27.58H39.7176C33.3379 27.58 28.1467 32.7802 28.1467 39.1765V53.1176C28.1467 53.478 27.85 53.7708 27.4886 53.7708H22.5497C19.6362 53.7708 17.28 56.088 17.28 58.9587V70.8308C17.28 73.7015 19.6362 76.0187 22.5497 76.0187H27.4886C27.85 76.0187 28.1467 76.3115 28.1467 76.6719V90.9387C28.1467 97.3253 33.3477 102.526 39.7176 102.526H84.1261C90.4862 102.526 95.6969 97.3253 95.6969 90.9387V76.6818C95.6969 76.3213 95.9937 76.0286 96.355 76.0286H100.272C106.179 76.0187 110.584 71.3239 110.584 65.6031V64.9142ZM79.1414 73.8309C79.1414 74.5477 78.5557 75.1367 77.8324 75.1367H60.9482C60.2347 75.1367 59.6392 74.5477 59.6392 73.8309V66.6604C59.6392 65.9436 60.2249 65.3546 60.9482 65.3546H77.8324C78.5459 65.3546 79.1414 65.9436 79.1414 66.6604V73.8309Z" fill="white"/>
</svg> 